<svg width="150" height="40" viewBox="0 0 150 40" fill="none" xmlns="http://www.w3.org/2000/svg">
  <path d="M0 0H10V40H0V0Z" fill="#60a5fa"/>
  <path d="M15 0H25V40H15V0Z" fill="#60a5fa"/>
  <path d="M0 15H25V25H0V15Z" fill="#60a5fa"/>
  <path d="M30 0H40V40H30V0Z" fill="#60a5fa"/>
  <path d="M45 0H55V40H45V0Z" fill="#60a5fa"/>
  <path d="M60 0H70V40H60V0Z" fill="#60a5fa"/>
  <path d="M45 0H70V10H45V0Z" fill="#60a5fa"/>
  <path d="M45 15H70V25H45V15Z" fill="#60a5fa"/>
  <path d="M75 0H85V40H75V0Z" fill="#60a5fa"/>
  <path d="M75 0H100V10H75V0Z" fill="#60a5fa"/>
  <path d="M75 15H100V25H75V15Z" fill="#60a5fa"/>
  <path d="M75 30H100V40H75V30Z" fill="#60a5fa"/>
  <path d="M105 0H115V40H105V0Z" fill="#60a5fa"/>
  <path d="M120 0H130V40H120V0Z" fill="#60a5fa"/>
  <path d="M135 0H145V40H135V0Z" fill="#60a5fa"/>
  <path d="M120 0H145V10H120V0Z" fill="#60a5fa"/>
</svg> 